<mxfile host="app.diagrams.net" agent="Mozilla/5.0 (Macintosh; Intel Mac OS X 10_15_7) AppleWebKit/605.1.15 (KHTML, like Gecko) Version/18.3.1 Safari/605.1.15" version="26.2.9">
  <diagram name="Page-1" id="Dp5yoPsLYcd2TQ4JPQG5">
    <mxGraphModel dx="1104" dy="737" grid="1" gridSize="10" guides="1" tooltips="1" connect="1" arrows="1" fold="1" page="1" pageScale="1" pageWidth="850" pageHeight="1100" math="0" shadow="0">
      <root>
        <mxCell id="0" />
        <mxCell id="1" parent="0" />
        <mxCell id="kOV2PQhcHayEdReO4k62-26" style="edgeStyle=orthogonalEdgeStyle;rounded=0;orthogonalLoop=1;jettySize=auto;html=1;exitX=0;exitY=0.5;exitDx=0;exitDy=0;entryX=0.5;entryY=0;entryDx=0;entryDy=0;" edge="1" parent="1" source="kOV2PQhcHayEdReO4k62-1" target="kOV2PQhcHayEdReO4k62-25">
          <mxGeometry relative="1" as="geometry" />
        </mxCell>
        <mxCell id="kOV2PQhcHayEdReO4k62-30" style="edgeStyle=orthogonalEdgeStyle;rounded=0;orthogonalLoop=1;jettySize=auto;html=1;exitX=0.5;exitY=1;exitDx=0;exitDy=0;entryX=0.5;entryY=0;entryDx=0;entryDy=0;" edge="1" parent="1" source="kOV2PQhcHayEdReO4k62-1" target="kOV2PQhcHayEdReO4k62-29">
          <mxGeometry relative="1" as="geometry" />
        </mxCell>
        <mxCell id="kOV2PQhcHayEdReO4k62-36" style="edgeStyle=orthogonalEdgeStyle;rounded=0;orthogonalLoop=1;jettySize=auto;html=1;exitX=1;exitY=0.5;exitDx=0;exitDy=0;entryX=0.5;entryY=0;entryDx=0;entryDy=0;" edge="1" parent="1" source="kOV2PQhcHayEdReO4k62-1" target="kOV2PQhcHayEdReO4k62-34">
          <mxGeometry relative="1" as="geometry" />
        </mxCell>
        <mxCell id="kOV2PQhcHayEdReO4k62-1" value="Gold Dataset ( source: Kaggle )" style="rounded=0;whiteSpace=wrap;html=1;" vertex="1" parent="1">
          <mxGeometry x="390" y="20" width="140" height="60" as="geometry" />
        </mxCell>
        <mxCell id="kOV2PQhcHayEdReO4k62-9" style="edgeStyle=orthogonalEdgeStyle;rounded=0;orthogonalLoop=1;jettySize=auto;html=1;exitX=0.5;exitY=1;exitDx=0;exitDy=0;entryX=0.5;entryY=0;entryDx=0;entryDy=0;" edge="1" parent="1" source="kOV2PQhcHayEdReO4k62-3" target="kOV2PQhcHayEdReO4k62-8">
          <mxGeometry relative="1" as="geometry" />
        </mxCell>
        <mxCell id="kOV2PQhcHayEdReO4k62-3" value="TCN Model" style="rounded=0;whiteSpace=wrap;html=1;" vertex="1" parent="1">
          <mxGeometry x="110" y="200" width="120" height="60" as="geometry" />
        </mxCell>
        <mxCell id="kOV2PQhcHayEdReO4k62-10" style="edgeStyle=orthogonalEdgeStyle;rounded=0;orthogonalLoop=1;jettySize=auto;html=1;exitX=0.5;exitY=1;exitDx=0;exitDy=0;" edge="1" parent="1" source="kOV2PQhcHayEdReO4k62-4" target="kOV2PQhcHayEdReO4k62-8">
          <mxGeometry relative="1" as="geometry" />
        </mxCell>
        <mxCell id="kOV2PQhcHayEdReO4k62-4" value="LSTM Model" style="rounded=0;whiteSpace=wrap;html=1;" vertex="1" parent="1">
          <mxGeometry x="250" y="200" width="120" height="60" as="geometry" />
        </mxCell>
        <mxCell id="kOV2PQhcHayEdReO4k62-20" style="edgeStyle=orthogonalEdgeStyle;rounded=0;orthogonalLoop=1;jettySize=auto;html=1;exitX=1;exitY=0.5;exitDx=0;exitDy=0;entryX=0.5;entryY=0;entryDx=0;entryDy=0;" edge="1" parent="1" source="kOV2PQhcHayEdReO4k62-8" target="kOV2PQhcHayEdReO4k62-19">
          <mxGeometry relative="1" as="geometry" />
        </mxCell>
        <mxCell id="kOV2PQhcHayEdReO4k62-8" value="Is TCN better than LSTM?" style="rhombus;whiteSpace=wrap;html=1;" vertex="1" parent="1">
          <mxGeometry x="190" y="290" width="100" height="90" as="geometry" />
        </mxCell>
        <mxCell id="kOV2PQhcHayEdReO4k62-11" value="results" style="text;html=1;align=center;verticalAlign=middle;resizable=0;points=[];autosize=1;strokeColor=none;fillColor=none;" vertex="1" parent="1">
          <mxGeometry x="300" y="260" width="60" height="30" as="geometry" />
        </mxCell>
        <mxCell id="kOV2PQhcHayEdReO4k62-14" value="results" style="text;html=1;align=center;verticalAlign=middle;resizable=0;points=[];autosize=1;strokeColor=none;fillColor=none;" vertex="1" parent="1">
          <mxGeometry x="120" y="260" width="60" height="30" as="geometry" />
        </mxCell>
        <mxCell id="kOV2PQhcHayEdReO4k62-17" value="Final Baseline Model = TCN Model" style="rounded=0;whiteSpace=wrap;html=1;" vertex="1" parent="1">
          <mxGeometry x="110" y="420" width="120" height="60" as="geometry" />
        </mxCell>
        <mxCell id="kOV2PQhcHayEdReO4k62-19" value="Final Baseline Model =&amp;nbsp;LSTM Model" style="rounded=0;whiteSpace=wrap;html=1;" vertex="1" parent="1">
          <mxGeometry x="270" y="420" width="120" height="60" as="geometry" />
        </mxCell>
        <mxCell id="kOV2PQhcHayEdReO4k62-21" style="edgeStyle=orthogonalEdgeStyle;rounded=0;orthogonalLoop=1;jettySize=auto;html=1;exitX=0.5;exitY=1;exitDx=0;exitDy=0;entryX=0.417;entryY=0.05;entryDx=0;entryDy=0;entryPerimeter=0;" edge="1" parent="1" source="kOV2PQhcHayEdReO4k62-8" target="kOV2PQhcHayEdReO4k62-17">
          <mxGeometry relative="1" as="geometry" />
        </mxCell>
        <mxCell id="kOV2PQhcHayEdReO4k62-22" value="Yes" style="text;html=1;align=center;verticalAlign=middle;resizable=0;points=[];autosize=1;strokeColor=none;fillColor=none;" vertex="1" parent="1">
          <mxGeometry x="170" y="370" width="40" height="30" as="geometry" />
        </mxCell>
        <mxCell id="kOV2PQhcHayEdReO4k62-23" value="No" style="text;html=1;align=center;verticalAlign=middle;resizable=0;points=[];autosize=1;strokeColor=none;fillColor=none;" vertex="1" parent="1">
          <mxGeometry x="290" y="308" width="40" height="30" as="geometry" />
        </mxCell>
        <mxCell id="kOV2PQhcHayEdReO4k62-27" style="edgeStyle=orthogonalEdgeStyle;rounded=0;orthogonalLoop=1;jettySize=auto;html=1;exitX=0.5;exitY=1;exitDx=0;exitDy=0;entryX=0.5;entryY=0;entryDx=0;entryDy=0;" edge="1" parent="1" source="kOV2PQhcHayEdReO4k62-25" target="kOV2PQhcHayEdReO4k62-3">
          <mxGeometry relative="1" as="geometry" />
        </mxCell>
        <mxCell id="kOV2PQhcHayEdReO4k62-28" style="edgeStyle=orthogonalEdgeStyle;rounded=0;orthogonalLoop=1;jettySize=auto;html=1;exitX=0.5;exitY=1;exitDx=0;exitDy=0;" edge="1" parent="1" source="kOV2PQhcHayEdReO4k62-25" target="kOV2PQhcHayEdReO4k62-4">
          <mxGeometry relative="1" as="geometry" />
        </mxCell>
        <mxCell id="kOV2PQhcHayEdReO4k62-25" value="Processed Dataset with Gold price information extracted from yfinancn" style="rounded=0;whiteSpace=wrap;html=1;" vertex="1" parent="1">
          <mxGeometry x="170" y="90" width="140" height="60" as="geometry" />
        </mxCell>
        <mxCell id="kOV2PQhcHayEdReO4k62-31" style="edgeStyle=orthogonalEdgeStyle;rounded=0;orthogonalLoop=1;jettySize=auto;html=1;exitX=0.5;exitY=1;exitDx=0;exitDy=0;" edge="1" parent="1" source="kOV2PQhcHayEdReO4k62-29" target="kOV2PQhcHayEdReO4k62-32">
          <mxGeometry relative="1" as="geometry">
            <mxPoint x="460" y="520" as="targetPoint" />
          </mxGeometry>
        </mxCell>
        <mxCell id="kOV2PQhcHayEdReO4k62-29" value="Calculate Finbert Score" style="rounded=0;whiteSpace=wrap;html=1;" vertex="1" parent="1">
          <mxGeometry x="390" y="200" width="140" height="60" as="geometry" />
        </mxCell>
        <mxCell id="kOV2PQhcHayEdReO4k62-32" value="Combine Sentiment Feature with Final Baseline Model" style="rounded=0;whiteSpace=wrap;html=1;" vertex="1" parent="1">
          <mxGeometry x="400" y="500" width="120" height="60" as="geometry" />
        </mxCell>
        <mxCell id="kOV2PQhcHayEdReO4k62-38" style="edgeStyle=orthogonalEdgeStyle;rounded=0;orthogonalLoop=1;jettySize=auto;html=1;exitX=0.5;exitY=1;exitDx=0;exitDy=0;entryX=0.5;entryY=0;entryDx=0;entryDy=0;" edge="1" parent="1" source="kOV2PQhcHayEdReO4k62-34" target="kOV2PQhcHayEdReO4k62-37">
          <mxGeometry relative="1" as="geometry" />
        </mxCell>
        <mxCell id="kOV2PQhcHayEdReO4k62-34" value="Embedding and Dimensionality Reduction" style="rounded=0;whiteSpace=wrap;html=1;" vertex="1" parent="1">
          <mxGeometry x="580" y="90" width="120" height="60" as="geometry" />
        </mxCell>
        <mxCell id="kOV2PQhcHayEdReO4k62-40" style="edgeStyle=orthogonalEdgeStyle;rounded=0;orthogonalLoop=1;jettySize=auto;html=1;exitX=0.5;exitY=1;exitDx=0;exitDy=0;entryX=0.5;entryY=0;entryDx=0;entryDy=0;" edge="1" parent="1" source="kOV2PQhcHayEdReO4k62-37" target="kOV2PQhcHayEdReO4k62-39">
          <mxGeometry relative="1" as="geometry" />
        </mxCell>
        <mxCell id="kOV2PQhcHayEdReO4k62-37" value="HDBSCAN model for topic clustering" style="rounded=0;whiteSpace=wrap;html=1;" vertex="1" parent="1">
          <mxGeometry x="580" y="200" width="120" height="60" as="geometry" />
        </mxCell>
        <mxCell id="kOV2PQhcHayEdReO4k62-41" style="edgeStyle=orthogonalEdgeStyle;rounded=0;orthogonalLoop=1;jettySize=auto;html=1;exitX=0.5;exitY=1;exitDx=0;exitDy=0;" edge="1" parent="1" source="kOV2PQhcHayEdReO4k62-39">
          <mxGeometry relative="1" as="geometry">
            <mxPoint x="640" y="400" as="targetPoint" />
          </mxGeometry>
        </mxCell>
        <mxCell id="kOV2PQhcHayEdReO4k62-39" value="Topic Refinement for Macro Grouping" style="rounded=0;whiteSpace=wrap;html=1;" vertex="1" parent="1">
          <mxGeometry x="580" y="293" width="120" height="60" as="geometry" />
        </mxCell>
        <mxCell id="kOV2PQhcHayEdReO4k62-44" style="edgeStyle=orthogonalEdgeStyle;rounded=0;orthogonalLoop=1;jettySize=auto;html=1;exitX=0.5;exitY=1;exitDx=0;exitDy=0;entryX=0.5;entryY=0;entryDx=0;entryDy=0;" edge="1" parent="1" source="kOV2PQhcHayEdReO4k62-42" target="kOV2PQhcHayEdReO4k62-43">
          <mxGeometry relative="1" as="geometry" />
        </mxCell>
        <mxCell id="kOV2PQhcHayEdReO4k62-49" style="edgeStyle=orthogonalEdgeStyle;rounded=0;orthogonalLoop=1;jettySize=auto;html=1;exitX=0.5;exitY=1;exitDx=0;exitDy=0;entryX=0.5;entryY=0;entryDx=0;entryDy=0;" edge="1" parent="1" source="kOV2PQhcHayEdReO4k62-42" target="kOV2PQhcHayEdReO4k62-48">
          <mxGeometry relative="1" as="geometry" />
        </mxCell>
        <mxCell id="kOV2PQhcHayEdReO4k62-42" value="Labelling clusters with LLM" style="rounded=0;whiteSpace=wrap;html=1;" vertex="1" parent="1">
          <mxGeometry x="580" y="400" width="120" height="60" as="geometry" />
        </mxCell>
        <mxCell id="kOV2PQhcHayEdReO4k62-43" value="Combine Cluster Feature with Final Baseline Model" style="rounded=0;whiteSpace=wrap;html=1;" vertex="1" parent="1">
          <mxGeometry x="580" y="500" width="120" height="60" as="geometry" />
        </mxCell>
        <mxCell id="kOV2PQhcHayEdReO4k62-54" style="edgeStyle=orthogonalEdgeStyle;rounded=0;orthogonalLoop=1;jettySize=auto;html=1;" edge="1" parent="1" source="kOV2PQhcHayEdReO4k62-45" target="kOV2PQhcHayEdReO4k62-46">
          <mxGeometry relative="1" as="geometry" />
        </mxCell>
        <mxCell id="kOV2PQhcHayEdReO4k62-45" value="" style="shape=curlyBracket;whiteSpace=wrap;html=1;rounded=1;labelPosition=left;verticalLabelPosition=middle;align=right;verticalAlign=middle;direction=north;" vertex="1" parent="1">
          <mxGeometry x="95" y="580" width="730" height="20" as="geometry" />
        </mxCell>
        <mxCell id="kOV2PQhcHayEdReO4k62-46" value="Final Model Creation with all features above" style="rounded=0;whiteSpace=wrap;html=1;" vertex="1" parent="1">
          <mxGeometry x="400" y="660" width="120" height="60" as="geometry" />
        </mxCell>
        <mxCell id="kOV2PQhcHayEdReO4k62-48" value="Clustering prediction" style="rounded=0;whiteSpace=wrap;html=1;" vertex="1" parent="1">
          <mxGeometry x="720" y="500" width="120" height="60" as="geometry" />
        </mxCell>
        <mxCell id="kOV2PQhcHayEdReO4k62-53" style="edgeStyle=orthogonalEdgeStyle;rounded=0;orthogonalLoop=1;jettySize=auto;html=1;exitX=1;exitY=0.5;exitDx=0;exitDy=0;" edge="1" parent="1" source="kOV2PQhcHayEdReO4k62-52">
          <mxGeometry relative="1" as="geometry">
            <mxPoint x="400" y="690" as="targetPoint" />
          </mxGeometry>
        </mxCell>
        <mxCell id="kOV2PQhcHayEdReO4k62-52" value="&lt;h1 style=&quot;margin-top: 0px;&quot;&gt;New Headline&lt;/h1&gt;&lt;div&gt;Eg: &#39;Gold surges as a safe haven with turmoil over tariff war between US and China&#39;&lt;/div&gt;" style="text;html=1;whiteSpace=wrap;overflow=hidden;rounded=0;" vertex="1" parent="1">
          <mxGeometry x="180" y="630" width="180" height="120" as="geometry" />
        </mxCell>
        <mxCell id="kOV2PQhcHayEdReO4k62-55" value="Predicted % change in Gold" style="ellipse;shape=cloud;whiteSpace=wrap;html=1;" vertex="1" parent="1">
          <mxGeometry x="590" y="615" width="210" height="150" as="geometry" />
        </mxCell>
        <mxCell id="kOV2PQhcHayEdReO4k62-56" style="edgeStyle=orthogonalEdgeStyle;rounded=0;orthogonalLoop=1;jettySize=auto;html=1;exitX=1;exitY=0.5;exitDx=0;exitDy=0;entryX=0.105;entryY=0.5;entryDx=0;entryDy=0;entryPerimeter=0;" edge="1" parent="1" source="kOV2PQhcHayEdReO4k62-46" target="kOV2PQhcHayEdReO4k62-55">
          <mxGeometry relative="1" as="geometry" />
        </mxCell>
      </root>
    </mxGraphModel>
  </diagram>
</mxfile>
